<svg xmlns="http://www.w3.org/2000/svg" viewBox="0 0 512 512">
  <rect width="512" height="512" rx="110" fill="#ffd23f"/>
  <g opacity=".35" fill="#fff">
    <path d="M256 300 L120 -40 L200 -40 Z"/><path d="M256 300 L330 -40 L410 -40 Z"/>
    <path d="M256 300 L560 60 L560 160 Z"/><path d="M256 300 L-40 80 L-40 180 Z"/>
  </g>
  <g transform="translate(70 92) scale(2.6)">
    <path d="M72 108 C 98 104, 100 80, 88 66" fill="none" stroke="#000" stroke-width="13" stroke-linecap="round"/>
    <path d="M72 108 C 98 104, 100 80, 88 66" fill="none" stroke="#1c1c26" stroke-width="7" stroke-linecap="round"/>
    <ellipse cx="50" cy="88" rx="30" ry="28" fill="#1c1c26" stroke="#000" stroke-width="3.5"/>
    <polygon points="28,36 26,8 46,24" fill="#1c1c26" stroke="#000" stroke-width="3.5" stroke-linejoin="round"/>
    <polygon points="72,36 74,8 54,24" fill="#1c1c26" stroke="#000" stroke-width="3.5" stroke-linejoin="round"/>
    <circle cx="50" cy="45" r="25" fill="#1c1c26" stroke="#000" stroke-width="3.5"/>
    <path d="M33 34 q6 -10 18 -11" fill="none" stroke="#4b5276" stroke-width="3" stroke-linecap="round"/>
    <ellipse cx="40" cy="45" rx="7" ry="8" fill="#c6f432" stroke="#000" stroke-width="2"/>
    <ellipse cx="60" cy="45" rx="7" ry="8" fill="#c6f432" stroke="#000" stroke-width="2"/>
    <ellipse cx="40" cy="46" rx="1.8" ry="6" fill="#000"/>
    <ellipse cx="60" cy="46" rx="1.8" ry="6" fill="#000"/>
    <circle cx="42.5" cy="42" r="1.8" fill="#fff"/><circle cx="62.5" cy="42" r="1.8" fill="#fff"/>
    <path d="M47 55 h6 l-3 3.5 z" fill="#ff8fb1"/>
  </g>
  <g transform="translate(250 250) scale(1.75)">
    <ellipse cx="50" cy="88" rx="30" ry="28" fill="#1c1c26" stroke="#000" stroke-width="4"/>
    <polygon points="28,36 26,8 46,24" fill="#1c1c26" stroke="#000" stroke-width="4" stroke-linejoin="round"/>
    <polygon points="72,36 74,8 54,24" fill="#1c1c26" stroke="#000" stroke-width="4" stroke-linejoin="round"/>
    <circle cx="50" cy="45" r="25" fill="#1c1c26" stroke="#000" stroke-width="4"/>
    <ellipse cx="40" cy="45" rx="7" ry="8" fill="#ffb000" stroke="#000" stroke-width="2"/>
    <ellipse cx="60" cy="45" rx="7" ry="8" fill="#ffb000" stroke="#000" stroke-width="2"/>
    <ellipse cx="40" cy="46" rx="1.8" ry="6" fill="#000"/>
    <ellipse cx="60" cy="46" rx="1.8" ry="6" fill="#000"/>
    <circle cx="42.5" cy="42" r="1.8" fill="#fff"/><circle cx="62.5" cy="42" r="1.8" fill="#fff"/>
    <path d="M47 55 h6 l-3 3.5 z" fill="#ff8fb1"/>
    <path d="M24 70 q26 14 52 0" fill="none" stroke="#000" stroke-width="9" stroke-linecap="round"/>
    <path d="M24 70 q26 14 52 0" fill="none" stroke="#3ab0ff" stroke-width="5" stroke-linecap="round"/>
    <circle cx="50" cy="82" r="6" fill="#ffd23f" stroke="#000" stroke-width="2.5"/>
  </g>
</svg>
